/* XPM */
static char *Exit[] = {
"25 25 3 1 ",
"  c black",
". c #413F3F",
"X c white",
/* pixels */
"                         ",
"                         ",
"                         ",
"                         ",
"  . .... .               ",
" .X.XXXX.X.       .      ",
" .XXXXXXXX.      .X.     ",
" .XXXXXXXXX.     .X.     ",
".XXX XX XXXX.    .X.     ",
".XXXXXXXXXXXX..  .X.     ",
".XXXX  XXXXXXXX...X.     ",
".XX X XX XXXXXXXXXX.     ",
".XXX    XXXXXXXXXXX.     ",
".XXXXXXXXXXXXXXXXXX.     ",
".XXXXXXXXXXXXXXXXXX.     ",
"..XXXXXXXXXXXXXXXXX.     ",
" .XX..XXXXXXXXXXXX..     ",
" .X. .XX....XXXXXX.      ",
" ..  .XX.  .XX..XX.      ",
"     .X.   .XX..X.       ",
"     ..    .X.  .        ",
"            .            ",
"                         ",
"                         ",
"                         "
};
