/* XPM */
static char *Special_dot[] = {
/* columns rows colors chars-per-pixel */
"25 25 2 1 ",
"  c black",
". c #FFCD83",
/* pixels */
"                         ",
"                         ",
"                         ",
"                         ",
"                         ",
"                         ",
"                         ",
"                         ",
"          ....           ",
"         ......          ",
"        ........         ",
"        ........         ",
"        ........         ",
"        ........         ",
"         ......          ",
"          ....           ",
"                         ",
"                         ",
"                         ",
"                         ",
"                         ",
"                         ",
"                         ",
"                         ",
"                         "
};
