/* XPM */
static char *Purple_front[] = {
/* columns rows colors chars-per-pixel */
"25 25 3 1 ",
"  c black",
". c #F190FF",
"X c white",
/* pixels */
"                         ",
"                         ",
"                         ",
"                         ",
"         ......          ",
"       ..........        ",
"      ............       ",
"     ..............      ",
"     ...XX....XX...      ",
"     ..XXXX..XXXX..      ",
"    ...X  X..X  X...     ",
"    ...X  X..X  X...     ",
"    ....XX....XX....     ",
"    ................     ",
"    ................     ",
"    ................     ",
"    ................     ",
"    ................     ",
"    .. ....  .... ..     ",
"    .   ..    ..   .     ",
"                         ",
"                         ",
"                         ",
"                         ",
"                         "
};
