/* XPM */
static char *Blue[] = {
/* columns rows colors chars-per-pixel */
"25 25 3 1 ",
"  c black",
". c #001EFF",
"X c white",
/* pixels */
"                         ",
"                         ",
"                         ",
"                         ",
"         ......          ",
"       ..........        ",
"      ............       ",
"     ..............      ",
"     ..............      ",
"     ...XX....XX...      ",
"    ....XX....XX....     ",
"    ................     ",
"    ................     ",
"    ................     ",
"    ...XX..XX..XX...     ",
"    ..X..XX..XX..X..     ",
"    ................     ",
"    ................     ",
"    .. ....  .... ..     ",
"    .   ..    ..   .     ",
"                         ",
"                         ",
"                         ",
"                         ",
"                         "
};
