/* XPM */
static char *Red_left[] = {
/* columns rows colors chars-per-pixel */
"25 25 3 1 ",
"  c black",
". c red",
"X c white",
/* pixels */
"                         ",
"                         ",
"                         ",
"                         ",
"         ......          ",
"       ..........        ",
"      ............       ",
"     ..............      ",
"     ..XX....XX....      ",
"     .XXXX..XXXX...      ",
"    .  XXX.  XXX....     ",
"    .  XXX.  XXX....     ",
"    ...XX....XX.....     ",
"    ................     ",
"    ................     ",
"    ................     ",
"    ................     ",
"    ................     ",
"    .. ....  .... ..     ",
"    .   ..    ..   .     ",
"                         ",
"                         ",
"                         ",
"                         ",
"                         "
};
