/* XPM */
static char *Cian_right[] = {
/* columns rows colors chars-per-pixel */
"25 25 3 1 ",
"  c black",
". c #00FFD2",
"X c white",
/* pixels */
"                         ",
"                         ",
"                         ",
"                         ",
"         ......          ",
"       ..........        ",
"      ............       ",
"     ..............      ",
"     ....XX....XX..      ",
"     ...XXXX..XXXX.      ",
"    ....XXX  .XXX  .     ",
"    ....XXX  .XXX  .     ",
"    .....XX....XX...     ",
"    ................     ",
"    ................     ",
"    ................     ",
"    ................     ",
"    ................     ",
"    .. ....  .... ..     ",
"    .   ..    ..   .     ",
"                         ",
"                         ",
"                         ",
"                         ",
"                         "
};
