/* XPM */
static char *Pacman_half_up[] = {
/* columns rows colors chars-per-pixel */
"25 25 2 1 ",
"  c black",
". c #FFEC00",
/* pixels */
"                         ",
"                         ",
"                         ",
"                         ",
"                         ",
"                         ",
"      ....    ..         ",
"     .....    ...        ",
"    ......    ....       ",
"    .......  .....       ",
"   ........  ......      ",
"   ........  ......      ",
"   ................      ",
"   ................      ",
"   ................      ",
"   ................      ",
"    ..............       ",
"    ..............       ",
"     ............        ",
"      ..........         ",
"        ......           ",
"                         ",
"                         ",
"                         ",
"                         "
};
