/* XPM */
static char *Orange_up[] = {
/* columns rows colors chars-per-pixel */
"25 25 3 1 ",
"  c black",
". c #FF8A11",
"X c white",
/* pixels */
"                         ",
"                         ",
"                         ",
"                         ",
"         ......          ",
"       ..........        ",
"      ..  ....  ..       ",
"     ..X  X..X  X..      ",
"     ..XXXX..XXXX..      ",
"     ..XXXX..XXXX..      ",
"    ....XX....XX....     ",
"    ................     ",
"    ................     ",
"    ................     ",
"    ................     ",
"    ................     ",
"    ................     ",
"    ................     ",
"    .. ....  .... ..     ",
"    .   ..    ..   .     ",
"                         ",
"                         ",
"                         ",
"                         ",
"                         "
};
