/* XPM */
static char *Pacman_dead_2[] = {
/* columns rows colors chars-per-pixel */
"25 25 2 1 ",
"  c black",
". c #FFEC00",
/* pixels */
"                         ",
"                         ",
"                         ",
"                         ",
"                         ",
"          .....          ",
"         ........        ",
"        . . .. . .       ",
"       ... .... ...      ",
"       .. . .. . ..      ",
"      ..............     ",
"      ..............     ",
"      ..............     ",
"      ..............     ",
"      ... . . . . ..     ",
"       . . . . . ...     ",
"       ...........       ",
"        .........        ",
"           ....          ",
"                         ",
"                         ",
"                         ",
"                         ",
"                         ",
"                         "
};
