/* XPM */
static char *Dead[] = {
"25 25 2 1 ",
"  c black",
". c #FFEC00",
/* pixels */
"                         ",
".........................",
"                         ",
".........................",
"                         ",
". ...   ....   .   . ... ",
"..   .  .  .   .   ..   .",
"..   .  .      .   .    .",
".     . .      ..  .    .",
".     . .     . .  .    .",
".     . ....  . .  .    .",
".     . .  .  . .  .    .",
".     . .     . .  .    .",
".     . .     . .  .    .",
".     . .     .... .    .",
"..   .  .    .   . ..   .",
"..   .  .  . .   . ..   .",
". ...   .... .   . . ... ",
"                         ",
".........................",
"                         ",
".........................",
"                         ",
"                         ",
"                         "
};
